<svg width="735" height="97" viewBox="0 0 735 97" fill="none" xmlns="http://www.w3.org/2000/svg">
<path d="M15.042 15.42C15.042 17.98 14.946 20.444 14.754 22.812C14.626 25.18 14.498 26.844 14.37 27.804H15.138C16.29 26.012 17.634 24.572 19.17 23.484C20.706 22.332 22.402 21.5 24.258 20.988C26.178 20.412 28.194 20.124 30.306 20.124C34.082 20.124 37.378 20.796 40.194 22.14C43.01 23.484 45.186 25.564 46.722 28.38C48.322 31.196 49.122 34.844 49.122 39.324V73.5H34.818V42.876C34.818 39.1 34.114 36.284 32.706 34.428C31.362 32.508 29.25 31.548 26.37 31.548C23.49 31.548 21.218 32.22 19.554 33.564C17.954 34.908 16.802 36.86 16.098 39.42C15.394 41.98 15.042 45.116 15.042 48.828V73.5H0.738V0.539995H15.042V15.42ZM93.1118 20.124C93.8158 20.124 94.6478 20.156 95.6078 20.22C96.5678 20.284 97.3358 20.38 97.9118 20.508L96.8558 33.948C96.4078 33.82 95.7358 33.724 94.8398 33.66C94.0078 33.532 93.2718 33.468 92.6318 33.468C90.7758 33.468 88.9838 33.724 87.2558 34.236C85.5278 34.684 83.9598 35.42 82.5518 36.444C81.2078 37.468 80.1198 38.844 79.2878 40.572C78.5198 42.236 78.1358 44.316 78.1358 46.812V73.5H63.8318V21.084H74.6798L76.7918 29.916H77.4638C78.4878 28.124 79.7678 26.492 81.3038 25.02C82.8398 23.548 84.5998 22.364 86.5838 21.468C88.6318 20.572 90.8078 20.124 93.1118 20.124ZM127.151 20.124C132.015 20.124 136.175 21.052 139.631 22.908C143.151 24.764 145.871 27.452 147.791 30.972C149.711 34.492 150.671 38.812 150.671 43.932V50.844H116.879C117.007 54.876 118.191 58.044 120.431 60.348C122.735 62.652 125.903 63.804 129.935 63.804C133.327 63.804 136.399 63.484 139.151 62.844C141.903 62.14 144.751 61.084 147.695 59.676V70.716C145.135 71.996 142.415 72.924 139.535 73.5C136.719 74.14 133.295 74.46 129.263 74.46C124.015 74.46 119.375 73.5 115.343 71.58C111.311 69.596 108.143 66.62 105.839 62.652C103.535 58.684 102.383 53.692 102.383 47.676C102.383 41.532 103.407 36.444 105.455 32.412C107.567 28.316 110.479 25.244 114.191 23.196C117.903 21.148 122.223 20.124 127.151 20.124ZM127.247 30.3C124.495 30.3 122.191 31.196 120.335 32.988C118.543 34.78 117.487 37.564 117.167 41.34H137.231C137.231 39.228 136.847 37.34 136.079 35.676C135.375 34.012 134.287 32.7 132.815 31.74C131.343 30.78 129.487 30.3 127.247 30.3ZM176.573 73.5H162.269V0.539995H176.573V73.5ZM223.679 73.5H209.183V33.852C209.183 32.764 209.183 31.42 209.183 29.82C209.247 28.22 209.311 26.556 209.375 24.828C209.439 23.1 209.503 21.564 209.567 20.22C209.247 20.604 208.543 21.308 207.455 22.332C206.431 23.292 205.471 24.156 204.575 24.924L196.703 31.26L189.695 22.524L211.775 4.956H223.679V73.5ZM278.617 73.5H264.121V33.852C264.121 32.764 264.121 31.42 264.121 29.82C264.185 28.22 264.249 26.556 264.313 24.828C264.377 23.1 264.441 21.564 264.505 20.22C264.185 20.604 263.481 21.308 262.393 22.332C261.369 23.292 260.409 24.156 259.513 24.924L251.641 31.26L244.633 22.524L266.713 4.956H278.617V73.5ZM355.516 20.124C361.404 20.124 366.172 22.428 369.82 27.036C373.468 31.58 375.292 38.3 375.292 47.196C375.292 53.148 374.428 58.172 372.7 62.268C370.972 66.3 368.604 69.34 365.596 71.388C362.588 73.436 359.1 74.46 355.132 74.46C352.636 74.46 350.46 74.14 348.604 73.5C346.812 72.86 345.276 72.028 343.996 71.004C342.716 69.98 341.596 68.892 340.636 67.74H339.868C340.124 68.956 340.316 70.236 340.444 71.58C340.572 72.86 340.636 74.14 340.636 75.42V96.54H326.332V21.084H337.948L339.964 27.9H340.636C341.596 26.492 342.748 25.212 344.092 24.06C345.436 22.844 347.036 21.884 348.892 21.18C350.812 20.476 353.02 20.124 355.516 20.124ZM350.908 31.548C348.412 31.548 346.428 32.06 344.956 33.084C343.484 34.108 342.396 35.676 341.692 37.788C341.052 39.836 340.7 42.428 340.636 45.564V47.1C340.636 50.492 340.956 53.372 341.596 55.74C342.236 58.044 343.324 59.804 344.86 61.02C346.396 62.236 348.476 62.844 351.1 62.844C353.276 62.844 355.068 62.236 356.476 61.02C357.884 59.804 358.94 58.012 359.644 55.644C360.348 53.276 360.7 50.396 360.7 47.004C360.7 41.884 359.9 38.044 358.3 35.484C356.764 32.86 354.3 31.548 350.908 31.548ZM434.698 47.196C434.698 51.548 434.09 55.42 432.874 58.812C431.722 62.204 430.026 65.084 427.786 67.452C425.61 69.756 422.954 71.516 419.818 72.732C416.682 73.884 413.13 74.46 409.162 74.46C405.514 74.46 402.122 73.884 398.986 72.732C395.914 71.516 393.258 69.756 391.018 67.452C388.778 65.084 387.018 62.204 385.738 58.812C384.522 55.42 383.914 51.548 383.914 47.196C383.914 41.372 384.938 36.476 386.986 32.508C389.034 28.476 391.978 25.404 395.818 23.292C399.658 21.18 404.202 20.124 409.45 20.124C414.378 20.124 418.73 21.18 422.506 23.292C426.282 25.404 429.258 28.476 431.434 32.508C433.61 36.476 434.698 41.372 434.698 47.196ZM398.506 47.196C398.506 50.652 398.858 53.564 399.562 55.932C400.33 58.236 401.514 59.996 403.114 61.212C404.714 62.364 406.794 62.94 409.354 62.94C411.914 62.94 413.962 62.364 415.498 61.212C417.098 59.996 418.25 58.236 418.954 55.932C419.722 53.564 420.106 50.652 420.106 47.196C420.106 43.74 419.722 40.86 418.954 38.556C418.25 36.252 417.098 34.524 415.498 33.372C413.898 32.22 411.818 31.644 409.258 31.644C405.482 31.644 402.73 32.956 401.002 35.58C399.338 38.14 398.506 42.012 398.506 47.196ZM475.799 20.124C476.503 20.124 477.335 20.156 478.295 20.22C479.255 20.284 480.023 20.38 480.599 20.508L479.543 33.948C479.095 33.82 478.423 33.724 477.527 33.66C476.695 33.532 475.959 33.468 475.319 33.468C473.463 33.468 471.671 33.724 469.943 34.236C468.215 34.684 466.647 35.42 465.239 36.444C463.895 37.468 462.807 38.844 461.975 40.572C461.207 42.236 460.823 44.316 460.823 46.812V73.5H446.519V21.084H457.367L459.479 29.916H460.151C461.175 28.124 462.455 26.492 463.991 25.02C465.527 23.548 467.287 22.364 469.271 21.468C471.319 20.572 473.495 20.124 475.799 20.124ZM512.193 63.036C513.793 63.036 515.329 62.876 516.801 62.556C518.273 62.236 519.745 61.852 521.217 61.404V72.06C519.681 72.7 517.761 73.244 515.457 73.692C513.217 74.204 510.753 74.46 508.065 74.46C504.929 74.46 502.113 73.948 499.617 72.924C497.185 71.9 495.233 70.14 493.761 67.644C492.353 65.084 491.649 61.564 491.649 57.084V31.836H484.833V25.788L492.705 20.988L496.833 9.94799H505.953V21.084H520.641V31.836H505.953V57.084C505.953 59.068 506.529 60.572 507.681 61.596C508.833 62.556 510.337 63.036 512.193 63.036ZM560.73 31.836H548.346V73.5H534.042V31.836H526.17V24.924L534.042 21.084V17.244C534.042 12.764 534.778 9.308 536.25 6.876C537.786 4.38 539.93 2.62 542.682 1.596C545.498 0.571997 548.794 0.0599957 552.57 0.0599957C555.386 0.0599957 557.914 0.283997 560.154 0.731998C562.458 1.18 564.314 1.692 565.722 2.268L562.074 12.732C560.986 12.412 559.802 12.124 558.522 11.868C557.242 11.548 555.77 11.388 554.106 11.388C552.122 11.388 550.65 11.996 549.69 13.212C548.794 14.428 548.346 15.964 548.346 17.82V21.084H560.73V31.836ZM616.479 47.196C616.479 51.548 615.871 55.42 614.655 58.812C613.503 62.204 611.807 65.084 609.567 67.452C607.391 69.756 604.735 71.516 601.599 72.732C598.463 73.884 594.911 74.46 590.943 74.46C587.295 74.46 583.903 73.884 580.767 72.732C577.695 71.516 575.039 69.756 572.799 67.452C570.559 65.084 568.799 62.204 567.519 58.812C566.303 55.42 565.695 51.548 565.695 47.196C565.695 41.372 566.719 36.476 568.767 32.508C570.815 28.476 573.759 25.404 577.599 23.292C581.439 21.18 585.983 20.124 591.231 20.124C596.159 20.124 600.511 21.18 604.287 23.292C608.063 25.404 611.039 28.476 613.215 32.508C615.391 36.476 616.479 41.372 616.479 47.196ZM580.287 47.196C580.287 50.652 580.639 53.564 581.343 55.932C582.111 58.236 583.295 59.996 584.895 61.212C586.495 62.364 588.575 62.94 591.135 62.94C593.695 62.94 595.743 62.364 597.279 61.212C598.879 59.996 600.031 58.236 600.735 55.932C601.503 53.564 601.887 50.652 601.887 47.196C601.887 43.74 601.503 40.86 600.735 38.556C600.031 36.252 598.879 34.524 597.279 33.372C595.679 32.22 593.599 31.644 591.039 31.644C587.263 31.644 584.511 32.956 582.783 35.58C581.119 38.14 580.287 42.012 580.287 47.196ZM642.605 73.5H628.301V0.539995H642.605V73.5ZM671.855 21.084V73.5H657.551V21.084H671.855ZM664.751 0.539995C666.863 0.539995 668.687 1.052 670.223 2.076C671.759 3.036 672.527 4.86 672.527 7.548C672.527 10.172 671.759 11.996 670.223 13.02C668.687 14.044 666.863 14.556 664.751 14.556C662.575 14.556 660.719 14.044 659.183 13.02C657.711 11.996 656.975 10.172 656.975 7.548C656.975 4.86 657.711 3.036 659.183 2.076C660.719 1.052 662.575 0.539995 664.751 0.539995ZM734.417 47.196C734.417 51.548 733.809 55.42 732.593 58.812C731.441 62.204 729.745 65.084 727.505 67.452C725.329 69.756 722.673 71.516 719.537 72.732C716.401 73.884 712.849 74.46 708.881 74.46C705.233 74.46 701.841 73.884 698.705 72.732C695.633 71.516 692.977 69.756 690.737 67.452C688.497 65.084 686.737 62.204 685.457 58.812C684.241 55.42 683.633 51.548 683.633 47.196C683.633 41.372 684.657 36.476 686.705 32.508C688.753 28.476 691.697 25.404 695.537 23.292C699.377 21.18 703.921 20.124 709.169 20.124C714.097 20.124 718.449 21.18 722.225 23.292C726.001 25.404 728.977 28.476 731.153 32.508C733.329 36.476 734.417 41.372 734.417 47.196ZM698.225 47.196C698.225 50.652 698.577 53.564 699.281 55.932C700.049 58.236 701.233 59.996 702.833 61.212C704.433 62.364 706.513 62.94 709.073 62.94C711.633 62.94 713.681 62.364 715.217 61.212C716.817 59.996 717.969 58.236 718.673 55.932C719.441 53.564 719.825 50.652 719.825 47.196C719.825 43.74 719.441 40.86 718.673 38.556C717.969 36.252 716.817 34.524 715.217 33.372C713.617 32.22 711.537 31.644 708.977 31.644C705.201 31.644 702.449 32.956 700.721 35.58C699.057 38.14 698.225 42.012 698.225 47.196Z" fill="#363636"/>
</svg>
